<?xml version="1.0" encoding="UTF-8"?>
<svg width="1798px" height="418px" viewBox="0 0 1798 418" version="1.1" xmlns="http://www.w3.org/2000/svg" xmlns:xlink="http://www.w3.org/1999/xlink">
    <!-- Generator: Sketch 63.1 (92452) - https://sketch.com -->
    <title>BurnRate.io.Logo.V4.Inline.Light</title>
    <desc>Created with Sketch.</desc>
    <defs>
        <path d="M27.1349921,187.981153 C-3.61310535,259.119446 -8.22531997,314.019648 13.2983483,352.681764 C34.8220165,391.343881 74.0258408,412.994664 130.909821,417.634119 C194.712124,406.035484 234.684651,376.265656 250.827402,328.324631 C263.831887,289.703689 257.068745,236.301775 222.00106,179.862108 C210.470524,161.304293 203.936552,131.147843 202.399149,89.3927587 C194.010784,96.3510163 187.861165,103.310197 183.950289,110.270301 C180.039414,117.230405 176.195902,128.055797 172.419753,142.746478 C150.511734,118.288007 142.244261,97.116094 140.134251,78.9539876 C138.02424,60.7918812 141.050879,36.1069879 150.511734,0.0832722482 C118.226231,20.9608145 99.0086702,47.2510529 92.8590506,78.9539876 C88.0588426,103.700345 89.1006054,127.284966 92.8590506,153.185249 C96.3231074,177.056835 93.4768846,194.20443 80.1754604,208.858695 C64.0327092,226.643269 46.3525531,219.684088 27.1349921,187.981153 Z" id="path-1"></path>
    </defs>
    <g id="Logos" stroke="none" stroke-width="1" fill="none" fill-rule="evenodd">
        <g id="Logo-Inline-Light-Copy-2" transform="translate(-648.000000, -477.000000)">
            <g id="BurnRate.io.Logo.V4.Inline.Light" transform="translate(648.000000, 477.000000)">
                <path d="M424.927545,384.048267 C441.57816,384.048267 455.674419,378.661329 467.216323,367.887452 C478.758226,357.113575 484.529178,343.598976 484.529178,327.343653 C484.529178,316.947807 482.069428,307.780561 477.149928,299.841915 C472.230428,291.903269 465.418813,285.665761 456.715082,281.129392 C470.149101,271.300593 476.866111,257.785993 476.866111,240.585593 C476.866111,224.897317 471.237068,211.808002 459.978981,201.317648 C448.720895,190.827294 434.955756,185.582117 418.683564,185.582117 L418.683564,185.582117 L339.782354,185.582117 L339.782354,384.048267 L424.927545,384.048267 Z M418.683564,268.370854 L372.421344,268.370854 L372.421344,216.202609 L418.683564,216.202609 C425.873602,216.202609 431.928371,218.707063 436.847871,223.71597 C441.767371,228.724878 444.227121,234.915132 444.227121,242.286732 C444.227121,249.658331 441.767371,255.848585 436.847871,260.857493 C431.928371,265.8664 425.873602,268.370854 418.683564,268.370854 L418.683564,268.370854 Z M424.927545,353.427775 L372.421344,353.427775 L372.421344,297.857253 L424.927545,297.857253 C432.496006,297.857253 438.881895,300.550723 444.085213,305.937661 C449.28853,311.324599 451.890188,317.892884 451.890188,325.642514 C451.890188,333.392145 449.28853,339.960429 444.085213,345.347368 C438.881895,350.734306 432.496006,353.427775 424.927545,353.427775 L424.927545,353.427775 Z M563.828268,385.486031 C582.17007,386.060487 597.259796,383.481414 606.519633,372.906384 C606.519633,373.085568 606.519633,376.799529 606.519633,384.048267 L637.171901,384.048267 L637.171901,242.286732 L606.519633,242.286732 L606.519633,313.177686 C606.519633,326.975808 603.208431,337.229893 596.586027,343.939939 C589.963623,350.649985 581.259893,354.005008 570.474835,354.005008 C560.635836,354.005008 552.878163,351.169777 547.201817,345.499316 C541.525471,339.828854 538.687298,331.701193 538.687298,321.116332 L538.687298,242.286732 L508.035029,242.286732 L508.035029,329.328314 C508.035029,347.473791 513.288969,358.978172 523.341506,369.418773 C533.394042,379.859374 545.486466,384.911575 563.828268,385.486031 Z M837.313684,241.44238 C818.971882,240.867924 803.882157,243.446997 794.62232,254.022027 C794.62232,253.842843 794.62232,250.128882 794.62232,242.880144 L763.970051,242.880144 L763.970051,384.641679 L794.62232,384.641679 L794.62232,313.750725 C794.62232,299.952603 797.933522,289.698518 804.555925,282.988472 C811.178329,276.278426 819.88206,272.923403 830.667117,272.923403 C840.506117,272.923403 848.26379,275.758634 853.940136,281.429095 C859.616482,287.099557 862.454655,295.227218 862.454655,305.812079 L862.454655,384.641679 L893.106924,384.641679 L893.106924,297.600097 C893.106924,279.45462 887.852983,267.950239 877.800447,257.509638 C867.74791,247.069037 855.655486,242.016837 837.313684,241.44238 Z M700.695992,384.048267 L700.695992,312.600453 C700.695992,298.046269 705.047857,287.603169 713.751588,281.271154 C722.455318,274.939139 732.672741,272.151162 744.403856,272.907223 L744.403856,239.735024 C723.022953,239.735024 708.275254,245.557466 700.695992,259.352458 L700.695992,242.286732 L670.043723,242.286732 L670.043723,384.048267 L700.695992,384.048267 Z M958.016314,384.048267 L958.016314,311.749884 L996.615467,311.749884 L1038.62043,384.048267 L1074.38141,384.048267 L1029.25446,306.929992 C1040.98557,302.204607 1050.49345,294.596738 1057.7781,284.106385 C1065.06274,273.616031 1068.70506,262.038839 1068.70506,249.374808 C1068.70506,231.607363 1062.50838,216.533386 1050.11503,204.152879 C1037.72167,191.772371 1022.63205,185.582117 1004.84617,185.582117 L1004.84617,185.582117 L925.377325,185.582117 L925.377325,384.048267 L958.016314,384.048267 Z M1004.84617,282.547008 L958.016314,282.547008 L958.016314,216.202609 L1004.84617,216.202609 C1013.5499,216.202609 1020.92915,219.415871 1026.98392,225.842394 C1033.03869,232.268916 1036.06607,240.113055 1036.06607,249.374808 C1036.06607,258.636562 1033.03869,266.4807 1026.98392,272.907223 C1020.92915,279.333746 1013.5499,282.547008 1004.84617,282.547008 L1004.84617,282.547008 Z M1149.82583,387.734067 C1171.39594,387.734067 1188.3282,384.048267 1199.49385,368.727835 L1199.49385,384.048267 L1230.14612,384.048267 L1230.14612,242.286732 L1199.49385,242.286732 L1199.49385,257.323641 C1187.14144,242.286732 1171.39594,238.600932 1149.82583,238.600932 C1130.33704,238.600932 1113.68642,245.783516 1099.87398,260.148685 C1086.06154,274.513854 1079.15532,292.186792 1079.15532,313.167499 C1079.15532,333.959191 1086.06154,351.584875 1099.87398,366.044552 C1113.68642,380.504229 1130.33704,387.734067 1149.82583,387.734067 Z M1154.65072,358.531191 C1141.78434,358.531191 1131.09388,354.278345 1122.57936,345.772652 C1114.06485,337.077945 1109.80759,326.209561 1109.80759,313.167499 C1109.80759,300.125438 1114.06485,289.304307 1122.57936,280.704108 C1131.09388,272.103908 1141.78434,267.803808 1154.65072,267.803808 C1167.5171,267.803808 1178.20756,272.103908 1186.72207,280.704108 C1195.23659,289.304307 1199.49385,300.125438 1199.49385,313.167499 C1199.49385,326.209561 1195.23659,337.030691 1186.72207,345.630891 C1178.20756,354.231091 1167.5171,358.531191 1154.65072,358.531191 Z M1307.00963,384.23011 L1307.00963,271.220803 L1342.20297,271.220803 L1342.20297,241.734404 L1307.00963,241.734404 L1307.00963,202.041174 L1276.35736,211.113912 L1276.35736,241.734404 L1250.24617,241.734404 L1250.24617,271.220803 L1276.35736,271.220803 L1276.35736,384.23011 L1307.00963,384.23011 Z M1430.70298,387.734067 C1458.13866,387.734067 1478.85732,377.432729 1492.85897,356.830052 L1492.85897,356.830052 L1467.59923,342.086852 C1459.46314,353.805806 1447.25899,359.665283 1430.9868,359.665283 C1419.25569,359.665283 1409.32208,356.782798 1401.18598,351.017829 C1393.04989,345.25286 1387.84657,336.983437 1385.57603,326.209561 L1385.57603,326.209561 L1498.53532,326.209561 C1499.29217,320.91713 1499.67059,316.664284 1499.67059,313.451022 C1499.67059,292.65933 1493.00088,274.986392 1479.66147,260.432208 C1466.32206,245.878024 1449.24571,238.600932 1428.43245,238.600932 C1406.48391,238.600932 1388.50881,245.736262 1374.50716,260.006924 C1360.5055,274.277585 1353.50468,291.997777 1353.50468,313.167499 C1353.50468,334.715253 1360.60011,352.529952 1374.79098,366.611598 C1388.98184,380.693244 1407.61918,387.734067 1430.70298,387.734067 Z M1468.7345,301.25953 L1385.29222,301.25953 C1387.37354,290.485654 1392.19844,281.979961 1399.7669,275.742454 C1407.33536,269.504946 1416.79594,266.386193 1428.14863,266.386193 C1438.17684,266.386193 1446.92787,269.315931 1454.40173,275.175408 C1461.87558,281.034885 1466.65318,289.729592 1468.7345,301.25953 L1468.7345,301.25953 Z" id="BurnRate" fill="#FFFFFF" fill-rule="nonzero"></path>
                <path d="M1531.6,387.8 C1537.552,387.8 1542.64,385.688 1546.864,381.464 C1551.088,377.24 1553.2,372.152 1553.2,366.2 C1553.2,360.248 1551.088,355.16 1546.864,350.936 C1542.64,346.712 1537.552,344.6 1531.6,344.6 C1525.456,344.6 1520.32,346.712 1516.192,350.936 C1512.064,355.16 1510,360.248 1510,366.2 C1510,372.152 1512.112,377.24 1516.336,381.464 C1520.56,385.688 1525.648,387.8 1531.6,387.8 Z M1601.872,218.744 C1607.248,218.744 1611.856,216.824 1615.696,212.984 C1619.728,208.952 1621.744,204.248 1621.744,198.872 C1621.744,193.496 1619.824,188.84 1615.984,184.904 C1612.144,180.968 1607.44,179 1601.872,179 C1596.304,179 1591.6,180.968 1587.76,184.904 C1583.92,188.84 1582,193.496 1582,198.872 C1582,204.248 1583.968,208.904 1587.904,212.84 C1591.84,216.776 1596.496,218.744 1601.872,218.744 Z M1617.424,384.344 L1617.424,240.344 L1586.32,240.344 L1586.32,384.344 L1617.424,384.344 Z M1721.392,388.088 C1742.704,388.088 1760.704,380.792 1775.392,366.2 C1790.08,351.608 1797.424,333.656 1797.424,312.344 C1797.424,291.032 1790.08,273.08 1775.392,258.488 C1760.704,243.896 1742.704,236.6 1721.392,236.6 C1700.272,236.6 1682.32,243.896 1667.536,258.488 C1652.752,273.08 1645.36,291.032 1645.36,312.344 C1645.36,333.656 1652.752,351.608 1667.536,366.2 C1682.32,380.792 1700.272,388.088 1721.392,388.088 Z M1721.392,357.848 C1708.72,357.848 1698.064,353.528 1689.424,344.888 C1680.784,336.248 1676.464,325.4 1676.464,312.344 C1676.464,299.288 1680.784,288.44 1689.424,279.8 C1698.064,271.16 1708.72,266.84 1721.392,266.84 C1734.064,266.84 1744.72,271.16 1753.36,279.8 C1762,288.44 1766.32,299.288 1766.32,312.344 C1766.32,325.4 1762,336.248 1753.36,344.888 C1744.72,353.528 1734.064,357.848 1721.392,357.848 Z" id=".io" fill="#FFFFFF" fill-rule="nonzero"></path>
                <g id="BurnRate-Logo-Icon-Copy">
                    <ellipse id="Oval-3" fill="#FFFFFF" cx="128.603714" cy="302.659568" rx="111.329319" ry="89.3341645"></ellipse>
                    <mask id="mask-2" fill="white">
                        <use xlink:href="#path-1"></use>
                    </mask>
                    <g id="path-1"></g>
                    <path d="M169.433382,272.124842 C177.693595,266.227512 187.929408,256.739888 186.605892,246.605234 C184.423725,229.895559 166.529954,228.576374 162.165619,228.576374 C157.801285,228.576374 142.962549,228.576374 126.378078,232.0942 C109.793607,235.612027 86.2262015,243.087407 86.2262015,243.087407 C86.2262015,243.087407 81.4254334,244.406592 76.6246657,250.562788 C71.823898,256.718983 70.9510311,262.43545 70.9510311,262.43545 C70.9510311,262.43545 80.4135804,259.716259 91.6201314,256.601521 C88.5730536,263.863378 81.2802204,281.712076 76.8778321,296.383755 C71.2041974,315.29207 59.4204945,356.186797 59.4204945,356.186797 C59.4204945,356.186797 96.844505,350.637565 130.122712,342.555221 C137.15094,340.848262 143.958082,338.882882 150.200026,336.878427 C158.360794,344.693604 171.596689,356.737786 171.596689,356.737786 C171.596689,356.737786 179.127733,349.577048 174.416822,338.204091 C173.107332,335.042753 171.37689,332.26533 169.560701,329.902659 C172.012763,328.908173 174.161777,327.982885 175.948222,327.164734 C199.952061,316.171527 198.124314,300.426897 197.333461,294.185114 C195.249469,277.737271 176.856622,273.265276 169.433382,272.124842 Z M142.678577,289.217567 C149.491853,286.974471 175.352861,279.67325 179.876123,296.383755 C181.884672,303.804033 170.541182,310.965603 155.890134,317.074715 C150.048875,311.661707 139.124894,301.276553 137.725347,298.053439 C136.639891,295.553666 139.080502,292.332252 142.678577,289.217567 Z M137.014912,323.877852 C116.993056,329.754627 91.7165688,332.001745 91.7165688,332.001745 C91.7165688,332.001745 96.5150444,310.02226 103.500272,288.908374 C109.047979,272.139607 115.418652,255.656945 117.805796,249.583046 C119.718007,249.105209 121.43555,248.691701 122.886611,248.364146 C136.729059,245.23942 149.072616,244.406592 150.81835,244.406592 C152.564084,244.406592 161.292752,243.966862 161.292752,250.562788 C161.292752,257.15871 153.436951,262.43545 149.509049,265.073821 C144.867538,268.191522 138.162007,272.406575 132.924579,276.067028 C125.006545,281.600961 122.886611,283.102678 119.395143,286.620504 C115.903675,290.138331 114.594375,293.216428 114.594375,298.053439 C114.594375,302.89045 116.776542,305.089092 119.395143,307.727461 C121.158279,309.503907 130.12301,317.474012 137.014912,323.877852 Z M27.1349921,187.981153 C46.3525531,219.684088 64.0327092,226.643269 80.1754604,208.858695 C93.4768846,194.20443 96.3231074,177.056835 92.8590506,153.185249 C89.1006054,127.284966 88.0588426,103.700345 92.8590506,78.9539876 C99.0086702,47.2510529 118.226231,20.9608145 150.511734,0.0832722482 C141.050879,36.1069879 137.591718,62.3972261 140.134251,78.9539876 C142.676783,95.5107491 153.438617,116.774912 172.419753,142.746478 C176.195902,127.282555 180.039414,116.070542 183.950289,109.110438 C187.861165,102.150334 194.010784,95.577774 202.399149,89.3927587 C204.522998,120.083332 208.366511,141.347496 213.929684,153.185249 C243.909079,216.97774 263.831887,289.703689 250.827402,328.324631 C234.684651,376.265656 194.712124,406.035484 130.909821,417.634119 C74.0258408,412.994664 34.8220165,391.343881 13.2983483,352.681764 C-8.22531997,314.019648 -3.61310535,259.119446 27.1349921,187.981153 Z" id="Combined-Shape" fill="#E9553B" fill-rule="nonzero" mask="url(#mask-2)"></path>
                    <path d="M201.246094,90.5526222 C191.538682,119.404009 187.724987,137.467502 190.868612,154.345112 C203.68145,223.135166 231.814098,244.400505 226.452272,297.733396 C221.02795,351.68792 190.690132,391.66584 130.933986,417.634119 L225.460221,455.909612 L314.245353,358.481082 L332.694211,194.940333 L253.133509,82.4335779 L201.246094,90.5526222 Z" id="Path-9" fill="#FF664B" fill-rule="nonzero" mask="url(#mask-2)"></path>
                    <path d="M87.7109111,351.425941 C90.7922206,369.691529 106.704117,393.243519 131.130936,417.827332 C131.190101,417.886878 131.026887,418.672667 132.062875,418.793982 C134.748092,419.108423 130.88683,420.989769 130.909821,421.113709 C130.938554,421.268604 130.554203,420.10874 129.756768,417.634119 C75.5624277,392.41469 46.1579143,375.778304 27.1349921,334.123949 C13.017138,303.210186 12.914815,254.955667 27.1349921,187.981153 L102.08348,3.56286263 L151.664787,-1.07659121 C118.610582,36.8122818 105.926992,79.7272298 113.614016,127.668253 C116.594807,146.258303 131.619363,174.111552 134.368982,207.1189 C134.964336,214.26572 133.071913,222.464712 129.744066,231.422435 C128.632035,231.63074 127.509116,231.85429 126.378078,232.0942 C109.793607,235.612027 86.2262015,243.087407 86.2262015,243.087407 C86.2262015,243.087407 81.4254334,244.406592 76.6246657,250.562788 C71.823898,256.718983 70.9510311,262.43545 70.9510311,262.43545 C70.9510311,262.43545 80.4135804,259.716259 91.6201314,256.601521 C88.5730536,263.863378 81.2802204,281.712076 76.8778321,296.383755 C71.2041974,315.29207 59.4204945,356.186797 59.4204945,356.186797 C59.4204945,356.186797 71.3419196,354.419089 87.7109111,351.425941 Z M106.376359,280.433664 C111.098229,266.838005 115.824329,254.624731 117.805796,249.583046 C119.483982,249.163688 121.012233,248.793877 122.342005,248.488232 C117.486448,258.621072 111.773223,269.37867 106.376359,280.433664 Z" id="Combined-Shape" fill="#FF664B" fill-rule="nonzero" mask="url(#mask-2)"></path>
                </g>
            </g>
        </g>
    </g>
</svg>